<svg width="33" height="33" viewBox="0 0 33 33" fill="none" xmlns="http://www.w3.org/2000/svg">
<g id="mdi:pets">
<path id="Vector" d="M11.4812 4.12493C13.1037 3.89118 14.8225 5.66493 15.3175 8.11243C15.8125 10.5462 14.9187 12.7187 13.2962 12.9662C11.6875 13.2137 9.95499 11.4399 9.44624 8.99243C8.93749 6.55868 9.85874 4.38618 11.4812 4.12493ZM21.3125 4.12493C22.9487 4.38618 23.8562 6.55868 23.375 8.99243C22.8525 11.4399 21.1337 13.2137 19.5112 12.9662C17.875 12.7187 16.9812 10.5462 17.49 8.11243C17.985 5.66493 19.7037 3.89118 21.3125 4.12493ZM4.12499 10.4499C5.69249 9.77618 7.82374 10.9999 8.93749 13.1312C9.98249 15.3037 9.62499 17.5862 8.07124 18.2599C6.51749 18.9337 4.39999 17.7237 3.31374 15.5649C2.22749 13.4062 2.61249 11.1099 4.12499 10.4499ZM28.875 10.4499C30.3875 11.1099 30.7725 13.4062 29.6862 15.5649C28.6 17.7237 26.4825 18.9337 24.9287 18.2599C23.375 17.5862 23.0175 15.3037 24.0625 13.1312C25.1762 10.9999 27.3075 9.77618 28.875 10.4499ZM26.5787 25.2724C26.6337 26.5649 25.6437 27.9949 24.4612 28.5312C22 29.6587 19.085 27.3212 16.3487 27.3212C13.6125 27.3212 10.67 29.7549 8.24999 28.5312C6.87499 27.8574 5.92624 26.0699 6.10499 24.5849C6.35249 22.5362 8.81374 21.4362 10.2712 19.9374C12.21 17.9987 13.585 14.3549 16.3487 14.3549C19.0987 14.3549 20.5562 17.9437 22.4125 19.9374C23.9387 21.6149 26.4825 23.0312 26.5787 25.2724Z" fill="#045153"/>
</g>
</svg>
