<svg width="39" height="33" viewBox="0 0 39 33" fill="none" xmlns="http://www.w3.org/2000/svg">
<g id="maki:doctor">
<path id="Vector" d="M14.3 15.4C12.5761 15.4 10.9228 14.8205 9.70382 13.789C8.48483 12.7576 7.80001 11.3586 7.80001 9.89995V5.49995C7.80001 5.20821 7.93698 4.92842 8.18077 4.72213C8.42457 4.51584 8.75523 4.39995 9.10001 4.39995H10.4C10.7448 4.39995 11.0755 4.28406 11.3193 4.07777C11.563 3.87148 11.7 3.59169 11.7 3.29995C11.7 3.00821 11.563 2.72842 11.3193 2.52213C11.0755 2.31584 10.7448 2.19995 10.4 2.19995H9.10001C8.06567 2.19995 7.07369 2.54763 6.3423 3.1665C5.6109 3.78537 5.20001 4.62474 5.20001 5.49995V9.89995C5.20168 11.1427 5.55982 12.3665 6.24365 13.4662C6.92749 14.566 7.91659 15.5089 9.12601 16.214C10.2892 17.08 11.2323 18.1368 11.8982 19.3205C12.5642 20.5042 12.939 21.79 13 23.1C13 25.1421 13.9588 27.1006 15.6653 28.5447C17.3719 29.9887 19.6865 30.8 22.1 30.8C24.5135 30.8 26.8281 29.9887 28.5347 28.5447C30.2413 27.1006 31.2 25.1421 31.2 23.1V21.846C32.4255 21.5782 33.4935 20.9415 34.2038 20.0551C34.9141 19.1688 35.218 18.0936 35.0586 17.0313C34.8991 15.9689 34.2872 14.9921 33.3375 14.2842C32.3879 13.5762 31.1657 13.1857 29.9 13.1857C28.6344 13.1857 27.4122 13.5762 26.4625 14.2842C25.5129 14.9921 24.9009 15.9689 24.7415 17.0313C24.582 18.0936 24.8859 19.1688 25.5962 20.0551C26.3066 20.9415 27.3746 21.5782 28.6 21.846V23.1C28.6 24.5586 27.9152 25.9576 26.6962 26.989C25.4772 28.0205 23.8239 28.6 22.1 28.6C20.3761 28.6 18.7228 28.0205 17.5038 26.989C16.2848 25.9576 15.6 24.5586 15.6 23.1C15.6643 21.7884 16.0432 20.5016 16.7137 19.3178C17.3841 18.134 18.3321 17.078 19.5 16.214C20.7046 15.5065 21.6887 14.5625 22.3679 13.4629C23.0471 12.3632 23.4013 11.1407 23.4 9.89995V5.49995C23.4 4.62474 22.9891 3.78537 22.2577 3.1665C21.5263 2.54763 20.5344 2.19995 19.5 2.19995H18.2C17.8552 2.19995 17.5246 2.31584 17.2808 2.52213C17.037 2.72842 16.9 3.00821 16.9 3.29995C16.9 3.59169 17.037 3.87148 17.2808 4.07777C17.5246 4.28406 17.8552 4.39995 18.2 4.39995H19.5C19.8448 4.39995 20.1755 4.51584 20.4193 4.72213C20.663 4.92842 20.8 5.20821 20.8 5.49995V9.89995C20.8 10.6222 20.6319 11.3374 20.3052 12.0047C19.9786 12.672 19.4998 13.2783 18.8962 13.789C18.2926 14.2998 17.5761 14.7049 16.7875 14.9813C15.9988 15.2577 15.1536 15.4 14.3 15.4ZM29.9 19.8C29.2105 19.8 28.5491 19.5682 28.0615 19.1556C27.5739 18.743 27.3 18.1834 27.3 17.6C27.3 17.0165 27.5739 16.4569 28.0615 16.0443C28.5491 15.6317 29.2105 15.4 29.9 15.4C30.5896 15.4 31.2509 15.6317 31.7385 16.0443C32.2261 16.4569 32.5 17.0165 32.5 17.6C32.5 18.1834 32.2261 18.743 31.7385 19.1556C31.2509 19.5682 30.5896 19.8 29.9 19.8Z" fill="#045153"/>
</g>
</svg>
